# xmcd
#
# Track frame offsets: 
#        150
#        15135
#        30424
#        45398
#        62916
#        74181
#        88595
#        104312
#        123753
#        137026
#        151285
#        166432
#        178372
#        195030
#        227025
#
# Disc length: 4440 seconds
#
# Revision: 7
# Processed by: cddbd v1.5.2PL0 Copyright (c) Steve Scherf et al.
# Submitted via: ExactAudioCopyFreeDBPlugin 1.0
#
DISCID=bc11560f
DTITLE=Edson and Hudson - Galera Coração - Ao Vivo
DYEAR=2005
DGENRE=Sertanejo
TTITLE0=Galera Coração
TTITLE1=Esqueça Que Te Amo
TTITLE2=Tá No Meu Coração
TTITLE3=Não Tem Dia, Não Tem Hora
TTITLE4=Festa Louca
TTITLE5=Por Amar Essa Mulher
TTITLE6=Te Quero Pra Mim
TTITLE7=Vou Tentar Ser Herói
TTITLE8=Abre A Janela (Beijinho)
TTITLE9=É Amor Demais
TTITLE10=Amor E Ilusão
TTITLE11=Chega Junto e Solta A Voz
TTITLE12=Nóis Enverga Mais Num Quebra - Mulher Que Não Dá Voa
TTITLE13=Vai Ser Pior Tentar Outra Vez
TTITLE14=Clipe
EXTD=
EXTT0=
EXTT1=
EXTT2=
EXTT3=
EXTT4=
EXTT5=
EXTT6=
EXTT7=
EXTT8=
EXTT9=
EXTT10=
EXTT11=
EXTT12=
EXTT13=
EXTT14=
PLAYORDER=
